name C:\Users\u0101727\Documents\MyRepositories\paper-ad\trackingsimulations_3d\Results\TrackSim\IK_c8.mot
datacolumns 32
datarows 13
range 3.85000000 4.04200000
endheader
time	pelvis_tilt	pelvis_list	pelvis_rotation	pelvis_tx	pelvis_ty	pelvis_tz	hip_flexion_l	hip_adduction_l	hip_rotation_l	hip_flexion_r	hip_adduction_r	hip_rotation_r	knee_angle_l	knee_angle_r	ankle_angle_l	ankle_angle_r	subtalar_angle_l	subtalar_angle_r	lumbar_extension	lumbar_bending	lumbar_rotation	arm_flex_l	arm_add_l	arm_rot_l	arm_flex_r	arm_add_r	arm_rot_r	elbow_flex_l	elbow_flex_r	pro_sup_l	pro_sup_r	
          3.85000000	          0.29966363	         -3.01091600	          7.12229024	          0.02586819	          0.92276874	         -0.22388829	        -11.50987985	         -4.76091887	          1.36326443	         26.34287760	          4.45972579	         -7.51433369	        -36.07438615	        -22.18109194	         -4.26196632	         -6.17363934	         13.32876493	        -11.08226424	         -3.95332249	          5.49038625	         -8.60556848	         -1.76192564	        -14.53046782	         19.20272667	         -9.28127443	        -15.62454782	         14.50040769	         22.97238843	         11.48788403	         86.51662706	         86.51662706	
          3.86600000	          0.45553408	         -4.04290691	          6.94636522	          0.04971658	          0.92348003	         -0.22264888	         -9.54605751	         -5.99069974	          1.20253175	         25.51149782	          5.88161866	         -7.44671113	        -40.35036550	        -23.62027294	        -10.36863314	         -4.18172369	         11.94037745	        -11.23345572	         -3.75981027	          6.82408827	         -8.17186432	         -2.26062773	        -14.02600685	         19.48296319	         -9.05299766	        -15.92642636	         14.47949037	         21.89508589	         11.82109063	         86.51662706	         86.51662706	
          3.88200000	          0.64954659	         -4.89553252	          6.87071411	          0.07270111	          0.92477085	         -0.22166780	         -7.23091009	         -6.84395733	          1.77611912	         24.28908704	          7.06082202	         -7.49349848	        -44.69205731	        -24.43668585	        -15.52487925	         -2.14332769	         10.75628451	        -11.01483105	         -3.74937123	          7.94601651	         -7.76341714	         -2.62276920	        -13.58708549	         19.90638253	         -8.72179379	        -16.22293128	         14.34374412	         20.85407255	         12.34714635	         86.51662706	         86.51662706	
          3.89800000	          0.86099623	         -5.59007866	          6.89203662	          0.09475524	          0.92659275	         -0.22089801	         -4.59363122	         -7.35328217	          2.77888854	         22.76922868	          8.03931345	         -7.59497663	        -49.16006618	        -24.69539329	        -18.12349281	         -0.27369741	          9.73759653	        -10.61668238	         -3.89773780	          8.87356330	         -7.35930247	         -2.83709960	        -13.23133963	         20.47586735	         -8.30495095	        -16.51765959	         14.11435430	         19.89807810	         13.09441466	         86.51662706	         86.51662706	
          3.91400000	          1.08746558	         -6.11208246	          7.02647284	          0.11597487	          0.92898713	         -0.22033086	         -1.74848721	         -7.52737454	          4.00460252	         21.01276190	          8.81014181	         -7.72933763	        -53.40978457	        -24.48710189	        -19.13297629	          1.33113564	          8.05742180	        -10.12691955	         -4.17882451	          9.58669889	         -6.97883470	         -2.92677405	        -12.97649665	         21.15615187	         -7.84159064	        -16.80958514	         13.81536861	         19.07169672	         14.09695092	         86.51662706	         86.51662706	
          3.93000000	          1.30513317	         -6.40650871	          7.27530420	          0.13650665	          0.93194291	         -0.21994703	          1.27683369	         -7.32514320	          5.39335879	         19.09536330	          9.31708227	         -7.88738954	        -57.35587964	        -23.93021374	        -18.56127157	          2.68775424	          6.42934136	         -9.55220089	         -4.53763678	         10.01469464	         -6.64711219	         -2.93454667	        -12.83806165	         21.87475263	         -7.36968602	        -17.08807617	         13.47420979	         18.39954124	         15.36557158	         86.51662706	         86.51662706	
          3.94600000	          1.48308256	         -6.45125340	          7.58767234	          0.15654932	          0.93534610	         -0.21966415	          4.41687979	         -6.74895087	          6.78762634	         17.09110372	          9.54792480	         -8.05009085	        -60.82416354	        -23.13273946	        -16.80979929	          3.82989616	          5.06883367	         -8.89153379	         -4.90673387	         10.12328767	         -6.34648972	         -2.92020580	        -12.81641829	         22.53835387	         -6.91999166	        -17.34948407	         13.10976775	         17.90197497	         16.87519809	         86.51662706	         86.51662706	
          3.96200000	          1.59412198	         -6.25435639	          7.88477864	          0.17629054	          0.93902090	         -0.21937478	          7.59075221	         -5.84548327	          8.00246813	         15.06475081	          9.52446364	         -8.18628638	        -63.62197748	        -22.18693274	        -14.40058430	          4.78551972	          3.87882813	         -8.16088833	         -5.22989617	          9.91487059	         -6.02782533	         -2.94153836	        -12.89792729	         23.04697863	         -6.50781471	        -17.59615728	         12.73790401	         17.59537162	         18.57169547	         86.51662706	         86.51662706	
          3.97800000	          1.61816778	         -5.84927792	          8.05950537	          0.19586209	          0.94275687	         -0.21893129	         10.72423731	         -4.70368131	          8.88460255	         13.08428063	          9.30270663	         -8.21423887	        -65.61628274	        -21.18562607	        -11.82709057	          5.55870233	          3.01302958	         -7.43765330	         -5.47717159	          9.42045759	         -5.60205980	         -3.04315862	        -13.06051081	         23.30829906	         -6.13606593	        -17.83706988	         12.37451850	         17.49581980	         20.39443292	         86.51662706	         86.51662706	
          3.99400000	          1.55105051	         -5.28200605	          8.03998476	          0.21532718	          0.94633434	         -0.21825171	         13.74088112	         -3.42979872	          9.33025168	         11.20706592	          8.93020011	         -8.08821130	        -66.71607913	        -20.22133842	         -9.10807397	          6.18706841	          2.23989439	         -6.75599036	         -5.64506917	          8.69321961	         -5.01255686	         -3.24589200	        -13.27679723	         23.26530477	         -5.78862209	        -18.08602837	         12.02602910	         17.60264999	         22.28490845	         86.51662706	         86.51662706	
          4.01000000	          1.41135785	         -4.62421438	          7.80788594	          0.23470891	          0.94957603	         -0.21733017	         16.57944737	         -2.15777312	          9.33976078	          9.45445529	          8.46637296	         -7.80854927	        -66.85818030	        -19.34508185	         -6.52664317	          6.70711645	          1.52491780	         -6.11095569	         -5.75191024	          7.82484254	         -4.25357243	         -3.54543353	        -13.51415342	         22.91184350	         -5.43474946	        -18.36132655	         11.69621595	         17.88997248	         24.19148573	         86.51662706	         86.51662706	
          4.02600000	          1.24042393	         -3.97295617	          7.37874696	          0.25402503	          0.95235425	         -0.21619222	         19.18495507	         -1.03426540	          8.97714582	          7.79758996	          8.00525949	         -7.39580762	        -66.04609224	        -18.54612847	         -4.33039471	          7.12468894	          0.73945101	         -5.51987408	         -5.83517364	          6.93993439	         -3.34595407	         -3.91873049	        -13.73651877	         22.28628791	         -5.04245606	        -18.68280437	         11.38670363	         18.30722453	         26.06921893	         86.51662706	         86.51662706	
          4.04200000	          1.08365088	         -3.40338435	          6.81060471	          0.27327656	          0.95456180	         -0.21491739	         21.50100746	         -0.15186069	          8.36374399	          6.19900338	          7.60941975	         -6.92009098	        -64.31469984	        -17.82325335	         -2.26549929	          7.48295873	         -0.22815557	         -4.94591594	         -5.93630575	          6.13928097	         -2.35312970	         -4.32863798	        -13.91540649	         21.46565503	         -4.58185620	        -19.06283059	         11.10307019	         18.78273707	         27.88352575	         86.51662706	         86.51662706	
